<svg width="63" height="63" viewBox="0 0 63 63" fill="none" xmlns="http://www.w3.org/2000/svg">
<path d="M24.7773 43.7902C24.4413 43.7902 24.1053 43.6616 23.8481 43.407L6.21597 25.7722C4.16847 23.7247 4.16847 20.3936 6.21597 18.3461C8.26872 16.2986 11.5972 16.3038 13.6395 18.3461L29.4183 34.125C29.9302 34.6369 29.9302 35.469 29.4183 35.9809C28.9065 36.4927 28.0743 36.4927 27.5625 35.9809L11.7836 20.202C10.7651 19.1835 9.10084 19.1808 8.07184 20.202C7.57834 20.6981 7.30272 21.357 7.30272 22.0578C7.30272 22.7613 7.57572 23.4202 8.07184 23.9163L25.7066 41.5485C26.2185 42.0604 26.2185 42.8925 25.7066 43.4044C25.4493 43.6616 25.1133 43.7902 24.7773 43.7902Z" fill="black"/>
<path d="M34.0594 30.7965C33.7234 30.7965 33.3874 30.6678 33.1301 30.4132L15.498 12.7785C14.4716 11.7521 12.81 11.7521 11.7836 12.7785C11.2901 13.2746 11.0145 13.9335 11.0145 14.6343C11.0145 15.3352 11.2875 15.9941 11.7836 16.4902L13.6395 18.3461C14.1514 18.858 14.1514 19.6901 13.6395 20.202C13.1276 20.7138 12.2955 20.7138 11.7836 20.202L9.92775 18.3461C8.9355 17.3538 8.3895 16.0361 8.3895 14.6343C8.3895 13.2326 8.9355 11.9148 9.92775 10.9226C11.9096 8.9407 15.3667 8.93545 17.3539 10.9226L34.986 28.5573C35.4979 29.0692 35.4979 29.9013 34.986 30.4132C34.7287 30.6705 34.3954 30.7965 34.0594 30.7965Z" fill="black"/>
<path d="M39.6296 25.2289C39.2936 25.2289 38.9576 25.1002 38.7004 24.8456L24.7774 10.9226C23.751 9.89624 22.092 9.89624 21.0656 10.9226C20.0419 11.9464 20.0419 13.6106 21.0656 14.6344C21.5775 15.1462 21.5775 15.9784 21.0656 16.4902C20.5537 17.0021 19.7216 17.0021 19.2097 16.4902C17.1649 14.4454 17.1649 11.1116 19.2097 9.06674C21.2546 7.02186 24.5884 7.02186 26.6332 9.06674L40.5562 22.9897C41.0681 23.5016 41.0681 24.3337 40.5562 24.8456C40.3016 25.1002 39.9656 25.2289 39.6296 25.2289Z" fill="black"/>
<path d="M38.1963 59.4667C37.3117 59.4667 36.4166 59.367 35.5293 59.1648L13.4268 54.0986C12.4713 53.8991 11.5815 53.4108 10.857 52.6863C9.86471 51.6941 9.31609 50.3737 9.31609 48.9746C9.31609 47.5728 9.86471 46.2551 10.857 45.2628C11.5395 44.5803 12.369 44.1105 13.2641 43.8926C13.2903 43.8821 13.3166 43.8768 13.3428 43.8689L24.4728 41.1993C25.179 41.0234 25.8877 41.4671 26.0557 42.1706C26.2237 42.8767 25.788 43.5828 25.0845 43.7534L14.0306 46.4047C13.9965 46.4152 13.9623 46.4257 13.9256 46.4336C13.4846 46.5307 13.0646 46.7696 12.7128 47.1213C12.2167 47.6175 11.9411 48.2763 11.9411 48.9772C11.9411 49.6781 12.2141 50.3369 12.7128 50.8331C13.062 51.1822 13.4951 51.429 13.9308 51.5261C13.9492 51.5287 13.965 51.5313 13.9807 51.5366L36.1173 56.6107C39.2227 57.3221 42.4173 56.4033 44.667 54.1511L55.4085 43.4069C57.1436 41.6718 58.0991 39.3644 58.0991 36.9101C58.0991 34.4557 57.1436 32.1509 55.4085 30.4132L32.2061 7.21082C31.1797 6.18445 29.5207 6.18445 28.4943 7.21082C27.4706 8.23457 27.4706 9.89882 28.4943 10.9226C29.0062 11.4344 29.0062 12.2666 28.4943 12.7784C27.9825 13.2903 27.1503 13.2903 26.6385 12.7784C24.5936 10.7336 24.5936 7.39982 26.6385 5.35495C28.6833 3.31007 32.0171 3.31007 34.062 5.35495L57.2643 28.5573C59.4982 30.7886 60.7241 33.7522 60.7241 36.9101C60.7241 40.068 59.4956 43.0316 57.2643 45.2628L46.5228 56.007C44.2706 58.2513 41.2886 59.4667 38.1963 59.4667Z" fill="black"/>
</svg>
