<svg width="78" height="78" viewBox="0 0 78 78" fill="none" xmlns="http://www.w3.org/2000/svg">
<path d="M63.6611 50.349L57.7656 46.1565C58.7557 42.5158 58.7501 38.676 57.7493 35.0382L63.6643 30.8977L58.9421 22.7272L52.3641 25.7367C49.7053 23.0588 46.3762 21.144 42.7246 20.1922L42.0973 13H32.6528L32.0256 20.1922C28.3747 21.1453 25.0467 23.0612 22.3893 25.74L15.8081 22.7305L11.0891 30.901L17.0041 35.0415C16.0028 38.6779 15.9961 42.5165 16.9846 46.1565L11.0891 50.349L15.8081 58.4805L22.3893 55.4677C25.0471 58.1453 28.375 60.0601 32.0256 61.0122L32.6528 68.2045H42.0973L42.7246 61.0122C46.3751 60.06 49.703 58.1452 52.3608 55.4677L58.9421 58.4805L63.6643 50.3522L63.6611 50.349ZM43.8913 9.70123C44.3097 9.70079 44.712 9.8617 45.0147 10.1505C45.3174 10.4392 45.4971 10.8336 45.5163 11.2515L46.0948 17.8652C48.4973 18.7808 50.7386 20.0731 52.7346 21.6937L58.7471 18.889C59.1184 18.6979 59.5491 18.6572 59.9497 18.7752C60.3503 18.8932 60.6901 19.1609 60.8986 19.5227L67.4148 30.8002C67.6242 31.1617 67.6863 31.59 67.5883 31.996C67.4902 32.4021 67.2396 32.7548 66.8883 32.981L61.4478 36.79C61.8638 39.3835 61.8508 41.9672 61.4511 44.4567L66.8883 48.2592C67.2404 48.4854 67.4917 48.8387 67.5898 49.2456C67.6878 49.6524 67.6252 50.0814 67.4148 50.4432L60.8986 61.6785C60.6901 62.0403 60.3503 62.3081 59.9497 62.4261C59.5491 62.5441 59.1184 62.5033 58.7471 62.3122L52.7346 59.5075C50.7781 61.1 48.5486 62.4 46.0948 63.3392L45.5163 69.953C45.4963 70.3703 45.3162 70.7639 45.0136 71.0519C44.711 71.34 44.3091 71.5005 43.8913 71.5H30.8588C30.441 71.5005 30.0391 71.34 29.7365 71.0519C29.4339 70.7639 29.2539 70.3703 29.2338 69.953L28.6553 63.3392C26.2527 62.4225 24.0114 61.1291 22.0156 59.5075L16.0031 62.3122C15.6318 62.5046 15.2006 62.5464 14.7993 62.4289C14.398 62.3115 14.0574 62.0439 13.8483 61.6817L7.33532 50.44C7.12595 50.0785 7.06383 49.6503 7.16187 49.2442C7.25991 48.8381 7.51058 48.4854 7.86182 48.2592L13.2991 44.4535C12.8919 41.9141 12.8919 39.3261 13.2991 36.7867L7.86507 32.981C7.51469 32.7549 7.26462 32.4028 7.16662 31.9975C7.06862 31.5921 7.13018 31.1647 7.33857 30.8035L13.8451 19.5227C14.0536 19.16 14.394 18.8917 14.7953 18.7737C15.1967 18.6556 15.6281 18.6969 15.9998 18.889L22.0123 21.6937C24.0083 20.0731 26.2496 18.7808 28.6521 17.8652L29.2306 11.2515C29.2498 10.8336 29.4295 10.4392 29.7322 10.1505C30.0349 9.8617 30.4372 9.70079 30.8556 9.70123H43.8881H43.8913ZM37.3751 29.25C40.3919 29.25 43.2852 30.4484 45.4184 32.5816C47.5516 34.7149 48.7501 37.6081 48.7501 40.625C48.7501 43.6418 47.5516 46.5351 45.4184 48.6683C43.2852 50.8015 40.3919 52 37.3751 52C34.3582 52 31.465 50.8015 29.3317 48.6683C27.1985 46.5351 26.0001 43.6418 26.0001 40.625C26.0001 37.6081 27.1985 34.7149 29.3317 32.5816C31.465 30.4484 34.3582 29.25 37.3751 29.25ZM37.3751 32.5C35.2202 32.5 33.1536 33.356 31.6298 34.8797C30.1061 36.4035 29.2501 38.4701 29.2501 40.625C29.2501 42.7799 30.1061 44.8465 31.6298 46.3702C33.1536 47.894 35.2202 48.75 37.3751 48.75C39.53 48.75 41.5966 47.894 43.1203 46.3702C44.644 44.8465 45.5001 42.7799 45.5001 40.625C45.5001 38.4701 44.644 36.4035 43.1203 34.8797C41.5966 33.356 39.53 32.5 37.3751 32.5Z" fill="black"/>
</svg>
