<svg width="72" height="84" viewBox="0 0 72 84" fill="none" xmlns="http://www.w3.org/2000/svg">
<path fill-rule="evenodd" clip-rule="evenodd" d="M53.1224 30.8761C53.4017 31.1547 53.6234 31.4858 53.7746 31.8502C53.9259 32.2147 54.0037 32.6054 54.0037 33.0001C54.0037 33.3947 53.9259 33.7854 53.7746 34.1499C53.6234 34.5143 53.4017 34.8454 53.1224 35.1241L35.1224 53.124C34.8437 53.4034 34.5126 53.6251 34.1482 53.7763C33.7837 53.9276 33.393 54.0054 32.9984 54.0054C32.6038 54.0054 32.213 53.9276 31.8486 53.7763C31.4841 53.6251 31.153 53.4034 30.8744 53.124L21.8744 44.1241C21.5954 43.8451 21.3742 43.514 21.2232 43.1496C21.0723 42.7851 20.9946 42.3945 20.9946 42C20.9946 41.6056 21.0723 41.215 21.2232 40.8505C21.3742 40.4861 21.5954 40.155 21.8744 39.876C22.1533 39.5971 22.4844 39.3759 22.8489 39.2249C23.2133 39.074 23.6039 38.9963 23.9984 38.9963C24.3928 38.9963 24.7834 39.074 25.1479 39.2249C25.5123 39.3759 25.8434 39.5971 26.1224 39.876L32.9984 46.7581L48.8744 30.8761C49.153 30.5967 49.4841 30.375 49.8486 30.2238C50.213 30.0725 50.6038 29.9947 50.9984 29.9947C51.393 29.9947 51.7837 30.0725 52.1482 30.2238C52.5126 30.375 52.8437 30.5967 53.1224 30.8761Z" fill="#6E9C9F"/>
<path fill-rule="evenodd" clip-rule="evenodd" d="M12 0H60C63.1826 0 66.2348 1.26428 68.4853 3.51472C70.7357 5.76516 72 8.8174 72 12V72C72 75.1826 70.7357 78.2348 68.4853 80.4853C66.2348 82.7357 63.1826 84 60 84H12C8.8174 84 5.76515 82.7357 3.51472 80.4853C1.26428 78.2348 0 75.1826 0 72V12C0 8.8174 1.26428 5.76516 3.51472 3.51472C5.76515 1.26428 8.8174 0 12 0ZM12 6C10.4087 6 8.88258 6.63214 7.75736 7.75736C6.63214 8.88258 6 10.4087 6 12V72C6 73.5913 6.63214 75.1174 7.75736 76.2426C8.88258 77.3679 10.4087 78 12 78H60C61.5913 78 63.1174 77.3679 64.2426 76.2426C65.3679 75.1174 66 73.5913 66 72V12C66 10.4087 65.3679 8.88258 64.2426 7.75736C63.1174 6.63214 61.5913 6 60 6H12Z" fill="#6E9C9F"/>
</svg>
