<svg width="23" height="19" viewBox="0 0 23 19" fill="none" xmlns="http://www.w3.org/2000/svg">
<path d="M20.2712 3.16525L20.2598 3.12109C21.2343 2.53688 22.0211 1.5738 22.3711 0.470703C21.4584 1.01367 20.3904 1.42561 19.3164 1.63867C18.4552 0.721098 17.3061 0.15625 15.9473 0.15625C13.3429 0.15625 11.1855 2.26475 11.1855 4.87305C11.1855 5.24419 11.238 5.60752 11.3203 5.95117V5.99609C7.43875 5.77436 3.92429 3.80031 1.61719 0.964844C1.21231 1.66248 0.988281 2.65939 0.988281 3.52539C0.988281 4.87305 1.78852 6.67805 3.05469 7.52344V7.61328C2.29865 7.58278 1.52429 7.06195 0.898438 6.71484C0.898438 6.73546 0.92584 6.76026 0.92584 6.78088C0.92584 9.0696 2.6034 11.0436 4.76172 11.4766C4.38559 11.5761 3.85582 11.6562 3.45898 11.6562C3.15361 11.6562 2.84877 11.5765 2.56055 11.5215C3.16102 13.3978 4.89648 14.6211 6.96289 14.6211V14.666C5.35446 15.913 3.31577 16.7773 1.12305 16.7773C0.742154 16.7773 0.269531 16.7324 0 16.6875C2.08622 18.0277 4.56631 18.8438 7.23242 18.8438C15.9102 18.8438 20.6641 11.7012 20.6641 5.45703V4.82812C21.5871 4.16144 22.3686 3.26098 23 2.3125C23 2.3125 21.3439 3.09724 20.2712 3.16525ZM18.8672 5.45703C18.8672 6.80523 18.6031 8.22099 18.1035 9.55121C17.5785 10.9492 16.8227 12.2107 15.8574 13.3005C14.3434 15.0096 11.6181 17.0469 7.23242 17.0469C7.10354 17.0469 6.97488 17.0446 6.84623 17.0402C7.26966 16.7945 7.67661 16.5211 8.06384 16.2209L8.75977 15.6814V14.8008V14.6211V12.8242L8.0195 12.816C7.21005 12.807 6.55859 12.1483 6.55859 11.3388V9.86962L5.58689 9.65017C5.1569 9.55305 4.85156 9.17108 4.85156 8.73026V7.61328V7.47852L4.8291 6.5626L4.02999 6.02907C3.6849 5.73874 3.37215 5.32406 3.14934 4.87529C5.50724 6.59481 8.30758 7.62379 11.2178 7.79005L13.1172 7.89854V5.99609V5.95117V5.73892L13.0677 5.5325C13.0111 5.29626 12.9824 5.07439 12.9824 4.87305C12.9824 4.09931 13.2911 3.3687 13.8517 2.81576C14.4156 2.25949 15.1598 1.95312 15.9473 1.95312C16.7434 1.95312 17.4362 2.26106 18.0063 2.86841L18.4647 3.35684L18.5202 3.57112L18.5316 3.61528L18.8672 4.91262V5.45703Z" fill="black"/>
</svg>
